<?xml version="1.0" encoding="utf-8"?>
<!-- Generator: Adobe Illustrator 21.0.0, SVG Export Plug-In . SVG Version: 6.00 Build 0)  -->
<svg version="1.1" xmlns="http://www.w3.org/2000/svg" xmlns:xlink="http://www.w3.org/1999/xlink" x="0px" y="0px" viewBox="0 0 284.7 236" style="enable-background:new 0 0 284.7 236;" xml:space="preserve">
<style type="text/css">
	.st10{fill:#fff;}
</style>
	<g>
		<polygon class="st10" points="165.3,167.6 159.2,174 120.5,174 114.5,167.6 132.6,148.5 109.9,124.7 58.9,171.2 47.6,171.2 
			13.9,201.9 198.1,201.9 171.4,174 		"/>
		<polygon class="st10" points="270.8,201.9 237,171.2 225.7,171.2 152,104 152,104 132.6,104 110.5,80.6 110.8,80.7 120.8,71.4 
			202.7,71.4 212.3,80.2 256.2,34.1 28.4,34.1 135.1,146 149.6,146 202.9,201.9 		"/>
		<polyline class="st10" points="171,83.9 154.2,101.5 174.4,120 210.1,82.5 201.4,74.6 180,74.6 179.8,74.6 		"/>
	</g>


</svg>
