<?xml version="1.0" encoding="UTF-8"?>
<svg width="328px" height="70px" viewBox="0 0 328 70" version="1.1" xmlns="http://www.w3.org/2000/svg" xmlns:xlink="http://www.w3.org/1999/xlink">
    <!-- Generator: Sketch 45.2 (43514) - http://www.bohemiancoding.com/sketch -->
    <title>circle</title>
    <desc>Created with Sketch.</desc>
    <defs>
        <polygon id="path-1" points="0 69.5292969 66.2929687 0.28515625 260.654297 0 327.865234 69.5292969"></polygon>
    </defs>
      <mask id="mask-2" fill="white">
          <use xlink:href="#path-1"></use>
      </mask>
    <g id="Artboard-2" transform="translate(-860.000000, -1017.000000)">
            <g id="circle" transform="translate(860.000000, 1017.000000)">
          
<g mask="url(#mask-2)">
    
    <g> 
         <!-- <animateTransform xmlns="http://www.w3.org/2000/svg" dur="5s" attributeName="transform" repeatCount="indefinite" type="rotate" from="0,164.395,-303.53" to="360,164.395,-303.53"/> -->
                <path fill="rgba(191,191,191,0.6)" transform="translate(-209.605000, -676.530000)" d="M384.7501,723.8033 L385.7491,723.7683 L386.2381,737.7593 L385.2381,737.7943 L384.7501,723.8033 Z M396.9854,723.1793 L397.9834,723.1103 L398.9594,737.0753 L397.9624,737.1453 L396.9854,723.1793 Z M409.192,722.1295 L410.187,722.0255 L411.65,735.9475 L410.655,736.0525 L409.192,722.1295 Z M421.3546,720.6529 L422.3446,720.5139 L424.2926,734.3779 L423.3026,734.5169 L421.3546,720.6529 Z M436.8741,732.3678 L438.2631,740.2458 L437.2781,740.4198 L435.8891,732.5418 L434.6731,725.6478 L432.0691,710.8758 L433.0541,710.7018 L434.4431,718.5808 L436.8741,732.3678 Z M445.4879,716.4332 L446.4659,716.2252 L449.3769,729.9192 L448.3989,730.1272 L445.4879,716.4332 Z M457.4293,713.6939 L458.3993,713.4529 L461.7863,727.0369 L460.8163,727.2789 L457.4293,713.6939 Z M469.2681,710.5406 L470.2291,710.2646 L474.0881,723.7226 L473.1271,723.9976 L469.2681,710.5406 Z M480.9893,706.9752 L481.9403,706.6652 L486.2663,719.9812 L485.3153,720.2892 L480.9893,706.9752 Z M504.023,698.6285 L504.95,698.2535 L510.195,711.2335 L509.268,711.6085 L504.023,698.6285 Z M515.3077,693.857 L516.2217,693.451 L521.9157,706.241 L521.0017,706.647 L515.3077,693.857 Z M526.4185,688.6959 L527.3175,688.2579 L533.4545,700.8409 L532.5555,701.2789 L526.4185,688.6959 Z M537.3428,683.149 L538.2258,682.679 L544.7988,695.041 L543.9158,695.51 L537.3428,683.149 Z M558.5777,670.9293 L559.4257,670.4003 L566.8447,682.2723 L565.9957,682.8023 L558.5777,670.9293 Z M568.8619,664.2711 L569.6909,663.7121 L577.5199,675.3191 L576.6909,675.8771 L568.8619,664.2711 Z M578.9078,657.2584 L579.7168,656.6704 L587.9458,667.9964 L587.1368,668.5844 L578.9078,657.2584 Z M588.7032,649.899 L589.4912,649.284 L598.1102,660.316 L597.3222,660.931 L588.7032,649.899 Z M607.4932,634.1783 L608.2362,633.5093 L617.6042,643.9123 L616.8612,644.5813 L607.4932,634.1783 Z M616.4654,625.8355 L617.1844,625.1405 L626.9094,635.2115 L626.1904,635.9055 L616.4654,625.8355 Z M625.1407,617.1842 L625.8357,616.4652 L635.9067,626.1902 L635.2117,626.9102 L625.1407,617.1842 Z M633.5093,608.2359 L634.1783,607.4929 L644.5823,616.8609 L643.9133,617.6039 L633.5093,608.2359 Z M652.9273,607.234 L659.0553,612.377 L658.4133,613.142 L635.4313,593.859 L636.0743,593.092 L642.2023,598.235 L652.9273,607.234 Z M649.2838,589.4908 L649.8998,588.7028 L660.9318,597.3218 L660.3158,598.1098 L649.2838,589.4908 Z M656.671,579.7164 L657.259,578.9074 L668.585,587.1364 L667.997,587.9454 L656.671,579.7164 Z M663.7125,569.691 L664.2715,568.862 L675.8785,576.691 L675.3185,577.519 L663.7125,569.691 Z M670.4,559.4254 L670.93,558.5774 L682.802,565.9954 L682.273,566.8444 L670.4,559.4254 Z M695.0411,544.7984 L682.6801,538.2254 L683.1491,537.3424 L695.5101,543.9154 L695.0411,544.7984 Z M688.2574,527.317 L688.6954,526.419 L701.2784,532.555 L700.8404,533.455 L688.2574,527.317 Z M693.4507,516.2213 L693.8577,515.3073 L706.6477,521.0013 L706.2407,521.9153 L693.4507,516.2213 Z M698.254,504.9498 L698.629,504.0228 L711.609,509.2668 L711.234,510.1948 L698.254,504.9498 Z M716.1588,497.3668 L723.6768,500.1028 L723.3338,501.0428 L695.1438,490.7828 L695.4858,489.8428 L703.0028,492.5788 L716.1588,497.3668 Z M719.981,486.2662 L706.666,481.9402 L706.975,480.9892 L720.29,485.3152 L719.981,486.2662 Z M710.2647,470.2291 L710.5407,469.2681 L723.9977,473.1261 L723.7227,474.0871 L710.2647,470.2291 Z M713.4527,458.399 L713.6947,457.429 L727.2787,460.816 L727.0367,461.787 L713.4527,458.399 Z M716.2256,446.4654 L716.4336,445.4874 L730.1276,448.3984 L729.9196,449.3764 L716.2256,446.4654 Z M720.5142,422.3443 L720.6532,421.3543 L734.5172,423.3023 L734.3782,424.2923 L720.5142,422.3443 Z M722.025,410.1861 L722.129,409.1921 L736.053,410.6551 L735.948,411.6501 L722.025,410.1861 Z M723.1099,397.983 L723.1799,396.985 L737.1459,397.962 L737.0759,398.96 L723.1099,397.983 Z M737.795,385.2379 L737.76,386.2379 L723.769,385.7489 L723.803,384.7499 L737.795,385.2379 Z M737.795,360.7613 L723.803,361.2493 L723.769,360.2503 L737.76,359.7613 L737.795,360.7613 Z M737.1456,348.0377 L723.1796,349.0147 L723.1096,348.0167 L737.0756,347.0397 L737.1456,348.0377 Z M736.0528,335.3443 L722.1298,336.8073 L722.0248,335.8133 L735.9488,334.3493 L736.0528,335.3443 Z M720.5142,323.6549 L734.3782,321.7069 L734.5172,322.6969 L720.6532,324.6449 L720.5142,323.6549 Z M718.5806,311.5562 L725.4746,310.3412 L740.2466,307.7372 L740.4196,308.7212 L732.5416,310.1102 L732.5416,310.1112 L718.7536,312.5412 L710.8756,313.9302 L710.7026,312.9462 L718.5806,311.5572 L718.5806,311.5562 Z M716.4337,300.5113 L716.2257,299.5333 L729.9197,296.6223 L730.1277,297.6013 L716.4337,300.5113 Z M713.6944,288.5699 L713.4524,287.5999 L727.0364,284.2139 L727.2784,285.1829 L713.6944,288.5699 Z M710.5406,276.732 L710.2646,275.77 L723.7226,271.912 L723.9986,272.873 L710.5406,276.732 Z M719.981,259.733 L720.29,260.684 L706.975,265.01 L706.666,264.059 L719.981,259.733 Z M702.6612,252.481 L715.8162,247.692 L723.3342,244.957 L723.6762,245.896 L695.4852,256.157 L695.1432,255.217 L702.6612,252.481 Z M698.6285,241.9762 L698.2535,241.0492 L711.2345,235.8042 L711.6095,236.7322 L698.6285,241.9762 Z M693.8575,230.692 L693.4505,229.778 L706.2405,224.084 L706.6475,224.998 L693.8575,230.692 Z M688.6959,219.5806 L688.2579,218.6826 L700.8409,212.5446 L701.2789,213.4436 L688.6959,219.5806 Z M695.0411,201.2007 L695.5101,202.0837 L683.1491,208.6567 L682.6801,207.7737 L695.0411,201.2007 Z M670.9297,187.4224 L670.3997,186.5734 L682.2727,179.1544 L682.8027,180.0034 L670.9297,187.4224 Z M664.2715,177.1373 L663.7125,176.3083 L675.3185,168.4803 L675.8775,169.3093 L664.2715,177.1373 Z M657.2589,167.0914 L656.6709,166.2824 L667.9969,158.0534 L668.5849,158.8624 L657.2589,167.0914 Z M649.8995,157.2964 L649.2835,156.5084 L660.3165,147.8894 L660.9315,148.6774 L649.8995,157.2964 Z M646.9224,142.4986 L652.2844,137.9996 L658.4134,132.8566 L659.0554,133.6226 L652.9274,138.7656 L642.2024,147.7646 L636.0744,152.9066 L635.4314,152.1406 L646.9224,142.4986 Z M634.1783,138.5064 L633.5093,137.7634 L643.9133,128.3954 L644.5823,129.1384 L634.1783,138.5064 Z M625.8355,129.5338 L625.1405,128.8148 L635.2115,119.0898 L635.9065,119.8088 L625.8355,129.5338 Z M617.1846,120.8589 L616.4656,120.1639 L626.1906,110.0929 L626.9096,110.7879 L617.1846,120.8589 Z M608.2364,112.4908 L607.4934,111.8208 L616.8614,101.4178 L617.6044,102.0868 L608.2364,112.4908 Z M598.1104,85.6832 L589.4914,96.7152 L588.7034,96.1002 L597.3224,85.0682 L598.1104,85.6832 Z M578.9078,88.7408 L587.1368,77.4148 L587.9458,78.0028 L579.7168,89.3288 L578.9078,88.7408 Z M568.8619,81.7281 L576.6909,70.1221 L577.5199,70.6801 L569.6909,82.2871 L568.8619,81.7281 Z M558.5777,75.0699 L565.9957,63.1969 L566.8447,63.7269 L559.4257,75.5999 L558.5777,75.0699 Z M544.7984,50.9586 L538.2254,63.3196 L537.3424,62.8506 L543.9154,50.4886 L544.7984,50.9586 Z M526.4185,57.3043 L532.5555,44.7203 L533.4545,45.1583 L527.3175,57.7413 L526.4185,57.3043 Z M515.3077,52.1422 L521.0017,39.3522 L521.9157,39.7592 L516.2217,52.5482 L515.3077,52.1422 Z M504.023,47.3707 L509.268,34.3907 L510.195,34.7657 L504.95,47.7457 L504.023,47.3707 Z M480.9893,39.024 L485.3153,25.71 L486.2663,26.019 L481.9403,39.334 L480.9893,39.024 Z M469.2681,35.4595 L473.1271,22.0015 L474.0881,22.2765 L470.2291,35.7345 L469.2681,35.4595 Z M457.4293,32.3052 L460.8163,18.7212 L461.7863,18.9622 L458.3993,32.5462 L457.4293,32.3052 Z M445.4879,29.566 L448.3989,15.872 L449.3769,16.08 L446.4659,29.774 L445.4879,29.566 Z M421.3546,25.3463 L423.3026,11.4823 L424.2926,11.6213 L422.3446,25.4853 L421.3546,25.3463 Z M409.192,23.8707 L410.655,9.9467 L411.65,10.0517 L410.187,23.9747 L409.192,23.8707 Z M396.9854,22.8199 L397.9624,8.8539 L398.9594,8.9239 L397.9834,22.8889 L396.9854,22.8199 Z M384.7501,22.1959 L385.2381,8.2049 L386.2381,8.2399 L385.7491,22.2309 L384.7501,22.1959 Z M359.7618,8.2398 L360.7618,8.2048 L361.2498,22.1958 L360.2508,22.2308 L359.7618,8.2398 Z M347.0401,8.9234 L348.0381,8.8544 L349.0141,22.8194 L348.0171,22.8894 L347.0401,8.9234 Z M334.3497,10.0513 L335.3447,9.9473 L336.8077,23.8703 L335.8127,23.9753 L334.3497,10.0513 Z M321.7066,11.6216 L322.6966,11.4816 L324.6446,25.3466 L323.6546,25.4846 L321.7066,11.6216 Z M310.1109,13.4586 L311.3259,20.3526 L313.9309,35.1236 L312.9459,35.2976 L311.5569,27.4196 L310.3409,20.5246 L307.7369,5.7536 L308.7209,5.5796 L310.1109,13.4586 Z M296.6231,16.0797 L297.6011,15.8717 L300.5121,29.5657 L299.5341,29.7737 L296.6231,16.0797 Z M284.2134,18.9625 L285.1834,18.7215 L288.5704,32.3055 L287.6004,32.5465 L284.2134,18.9625 Z M271.9117,22.2769 L272.8727,22.0019 L276.7317,35.4599 L275.7707,35.7349 L271.9117,22.2769 Z M259.733,26.0191 L260.684,25.7091 L265.01,39.0241 L264.059,39.3331 L259.733,26.0191 Z M248.6324,29.8414 L251.0264,36.4184 L256.1564,50.5144 L255.2164,50.8564 L252.4814,43.3384 L247.6924,30.1834 L244.9564,22.6654 L245.8964,22.3234 L248.6324,29.8414 Z M235.8047,34.7652 L236.7317,34.3902 L241.9767,47.3702 L241.0497,47.7452 L235.8047,34.7652 Z M224.084,39.7593 L224.998,39.3523 L230.692,52.1423 L229.778,52.5483 L224.084,39.7593 Z M212.545,45.1588 L213.444,44.7208 L219.581,57.3048 L218.682,57.7418 L212.545,45.1588 Z M201.2012,50.9586 L202.0842,50.4886 L208.6572,62.8506 L207.7742,63.3196 L201.2012,50.9586 Z M187.4224,75.0699 L186.5744,75.5999 L179.1554,63.7269 L180.0034,63.1969 L187.4224,75.0699 Z M168.48,70.6802 L169.309,70.1212 L177.138,81.7282 L176.309,82.2862 L168.48,70.6802 Z M158.0538,78.0025 L158.8628,77.4145 L167.0918,88.7405 L166.2828,89.3285 L158.0538,78.0025 Z M147.8892,85.6832 L148.6772,85.0682 L157.2962,96.1002 L156.5092,96.7152 L147.8892,85.6832 Z M138.5064,111.8209 L137.7634,112.4909 L128.3954,102.0869 L129.1384,101.4179 L138.5064,111.8209 Z M129.5342,120.1636 L128.8152,120.8586 L119.0902,110.7876 L119.8092,110.0936 L129.5342,120.1636 Z M120.859,128.815 L120.164,129.534 L110.093,119.809 L110.788,119.089 L120.859,128.815 Z M112.4908,137.7632 L111.8218,138.5062 L101.4178,129.1382 L102.0868,128.3952 L112.4908,137.7632 Z M93.0723,138.7652 L86.9443,133.6222 L87.5863,132.8572 L110.5683,152.1402 L109.9253,152.9072 L103.7973,147.7642 L93.0723,138.7652 Z M96.7159,156.5084 L96.0999,157.2964 L85.0679,148.6774 L85.6839,147.8894 L96.7159,156.5084 Z M89.3287,166.2828 L88.7407,167.0918 L77.4147,158.8628 L78.0027,158.0538 L89.3287,166.2828 Z M82.2872,176.3082 L81.7282,177.1372 L70.1212,169.3092 L70.6812,168.4802 L82.2872,176.3082 Z M75.6002,186.5738 L75.0702,187.4228 L63.1972,180.0038 L63.7272,179.1548 L75.6002,186.5738 Z M50.9586,201.2007 L63.3196,207.7737 L62.8506,208.6567 L50.4896,202.0837 L50.9586,201.2007 Z M57.7422,218.6822 L57.3042,219.5802 L44.7212,213.4442 L45.1592,212.5442 L57.7422,218.6822 Z M52.5489,229.7779 L52.1419,230.6919 L39.3529,224.9979 L39.7589,224.0839 L52.5489,229.7779 Z M47.7457,241.0494 L47.3707,241.9764 L34.3907,236.7324 L34.7657,235.8044 L47.7457,241.0494 Z M29.8409,248.6324 L22.3229,245.8964 L22.6659,244.9564 L30.1829,247.6924 L43.3389,252.4814 L50.8569,255.2174 L50.5139,256.1564 L36.4189,251.0264 L29.8409,248.6324 Z M26.0186,259.733 L39.3336,264.059 L39.0246,265.01 L25.7096,260.684 L26.0186,259.733 Z M35.7349,275.7701 L35.4589,276.7321 L22.0019,272.8731 L22.2769,271.9121 L35.7349,275.7701 Z M32.5469,287.6002 L32.3049,288.5702 L18.7209,285.1832 L18.9629,284.2132 L32.5469,287.6002 Z M29.774,299.5338 L29.566,300.5118 L15.872,297.6008 L16.08,296.6228 L29.774,299.5338 Z M13.4581,310.1109 L5.5801,308.7209 L5.7531,307.7369 L20.5251,310.3409 L27.4191,311.5559 L35.2971,312.9459 L35.1241,313.9299 L27.2461,312.5419 L13.4581,310.1109 Z M25.4854,323.6549 L25.3464,324.6449 L11.4824,322.6969 L11.6214,321.7069 L25.4854,323.6549 Z M23.9752,335.8131 L23.8702,336.8071 L9.9472,335.3441 L10.0522,334.3491 L23.9752,335.8131 Z M22.8897,348.0162 L22.8197,349.0142 L8.8537,348.0372 L8.9237,347.0392 L22.8897,348.0162 Z M8.2047,360.7613 L8.2397,359.7613 L22.2307,360.2503 L22.1967,361.2493 L8.2047,360.7613 Z M8.2047,385.2379 L22.1967,384.7499 L22.2307,385.7489 L8.2397,386.2379 L8.2047,385.2379 Z M22.8897,397.983 L8.9237,398.96 L8.8537,397.962 L22.8197,396.985 L22.8897,397.983 Z M23.9752,410.1861 L10.0522,411.6501 L9.9472,410.6551 L23.8702,409.1921 L23.9752,410.1861 Z M25.4854,422.3443 L11.6214,424.2923 L11.4824,423.3023 L25.3464,421.3543 L25.4854,422.3443 Z M27.419,434.443 L13.632,436.874 L5.753,438.263 L5.58,437.278 L35.124,432.069 L35.297,433.053 L27.419,434.443 Z M29.566,445.4879 L29.774,446.4659 L16.08,449.3769 L15.872,448.3979 L29.566,445.4879 Z M32.3052,457.4293 L32.5472,458.3993 L18.9632,461.7863 L18.7212,460.8163 L32.3052,457.4293 Z M35.459,469.2682 L35.735,470.2292 L22.277,474.0872 L22.001,473.1262 L35.459,469.2682 Z M25.7095,485.315 L39.0245,480.989 L39.3335,481.94 L26.0185,486.266 L25.7095,485.315 Z M47.3712,504.023 L47.7462,504.95 L34.7652,510.195 L34.3912,509.267 L47.3712,504.023 Z M52.1422,515.3072 L52.5492,516.2212 L39.7592,521.9152 L39.3522,521.0012 L52.1422,515.3072 Z M57.3038,526.4185 L57.7418,527.3165 L45.1588,533.4545 L44.7208,532.5555 L57.3038,526.4185 Z M50.4893,543.9156 L62.8503,537.3426 L63.3203,538.2256 L50.9583,544.7986 L50.4893,543.9156 Z M75.0699,558.5777 L75.5999,559.4257 L63.7269,566.8447 L63.1969,565.9957 L75.0699,558.5777 Z M81.7281,568.8619 L82.2871,569.6909 L70.6811,577.5189 L70.1221,576.6909 L81.7281,568.8619 Z M88.7408,578.9078 L89.3288,579.7168 L78.0028,587.9458 L77.4148,587.1368 L88.7408,578.9078 Z M96.1002,588.7027 L96.7162,589.4907 L85.6832,598.1097 L85.0682,597.3217 L96.1002,588.7027 Z M111.8214,607.4928 L112.4904,608.2358 L102.0864,617.6038 L101.4174,616.8608 L111.8214,607.4928 Z M120.1641,616.4654 L120.8591,617.1844 L110.7881,626.9094 L110.0931,626.1904 L120.1641,616.4654 Z M128.815,625.1402 L129.534,625.8352 L119.809,635.9062 L119.09,635.2112 L128.815,625.1402 Z M137.7632,633.5094 L138.5062,634.1784 L129.1382,644.5814 L128.3952,643.9124 L137.7632,633.5094 Z M147.8892,660.316 L156.5092,649.284 L157.2962,649.899 L148.6772,660.931 L147.8892,660.316 Z M158.0538,667.9967 L166.2828,656.6707 L167.0918,657.2587 L158.8628,668.5847 L158.0538,667.9967 Z M168.48,675.3189 L176.309,663.7129 L177.138,664.2709 L169.309,675.8779 L168.48,675.3189 Z M186.5743,670.4 L187.4223,670.929 L180.0033,682.802 L179.1553,682.272 L186.5743,670.4 Z M201.2012,695.0406 L207.7742,682.6796 L208.6572,683.1486 L202.0842,695.5106 L201.2012,695.0406 Z M212.545,700.8404 L218.682,688.2574 L219.581,688.6954 L213.444,701.2784 L212.545,700.8404 Z M224.084,706.2408 L229.778,693.4508 L230.692,693.8568 L224.998,706.6468 L224.084,706.2408 Z M235.8047,711.234 L241.0497,698.254 L241.9767,698.629 L236.7317,711.609 L235.8047,711.234 Z M259.733,719.981 L264.059,706.666 L265.01,706.975 L260.684,720.29 L259.733,719.981 Z M271.9117,723.7222 L275.7707,710.2642 L276.7317,710.5402 L272.8727,723.9972 L271.9117,723.7222 Z M284.2134,727.0367 L287.6004,713.4527 L288.5704,713.6937 L285.1834,727.2787 L284.2134,727.0367 Z M296.6231,729.9195 L299.5341,716.2255 L300.5121,716.4335 L297.6011,730.1275 L296.6231,729.9195 Z M321.7066,734.3775 L323.6546,720.5145 L324.6446,720.6525 L322.6966,734.5175 L321.7066,734.3775 Z M334.3497,735.9478 L335.8127,722.0248 L336.8077,722.1298 L335.3447,736.0518 L334.3497,735.9478 Z M347.0401,737.0758 L348.0171,723.1098 L349.0141,723.1798 L348.0381,737.1448 L347.0401,737.0758 Z M359.7618,737.7594 L360.2508,723.7684 L361.2498,723.8034 L360.7618,737.7944 L359.7618,737.7594 Z M489.8428,695.4849 L490.7828,695.1429 L501.0428,723.3339 L500.1038,723.6759 L497.3668,716.1589 L492.5788,703.0029 L489.8428,695.4849 Z M593.0928,636.0738 L593.8588,635.4308 L613.1428,658.4128 L612.3768,659.0548 L607.2348,652.9278 L598.2358,642.2028 L593.0928,636.0738 Z M710.7022,433.0533 L710.8752,432.0693 L740.4202,437.2783 L740.2462,438.2633 L732.3682,436.8733 L718.5802,434.4433 L710.7022,433.0533 Z M593.0928,109.9254 L598.2358,103.7964 L607.2348,93.0714 L612.3768,86.9444 L613.1428,87.5864 L593.8588,110.5684 L593.0928,109.9254 Z M497.3672,29.8414 L500.1032,22.3234 L501.0432,22.6654 L490.7832,50.8564 L489.8432,50.5144 L492.5792,42.9964 L497.3672,29.8414 Z M435.8892,13.4586 L437.2782,5.5796 L438.2632,5.7536 L436.8732,13.6316 L436.8742,13.6316 L434.4432,27.4196 L433.0542,35.2976 L432.0692,35.1236 L434.6732,20.3526 L435.8892,13.4586 Z M152.9068,109.9254 L152.1408,110.5684 L132.8568,87.5864 L133.6228,86.9444 L138.7648,93.0714 L147.7638,103.7964 L152.9068,109.9254 Z M50.5142,489.8424 L50.8562,490.7824 L22.6652,501.0424 L22.3232,500.1034 L29.8412,497.3664 L42.9962,492.5784 L50.5142,489.8424 Z M109.9254,593.0924 L110.5684,593.8594 L87.5864,613.1424 L86.9444,612.3764 L93.0724,607.2344 L103.7974,598.2354 L109.9254,593.0924 Z M152.9068,636.0738 L147.7638,642.2028 L138.7648,652.9278 L133.6228,659.0548 L132.8568,658.4128 L152.1408,635.4308 L152.9068,636.0738 Z M244.9566,723.3336 L255.2166,695.1436 L256.1566,695.4846 L245.8956,723.6766 L244.9566,723.3336 Z M312.9464,710.7017 L313.9304,710.8757 L311.3264,725.6477 L310.1114,732.5417 L310.1104,732.5417 L308.7214,740.4197 L307.7374,740.2457 L310.3414,725.4737 L311.5564,718.5807 L311.5574,718.5807 L312.9464,710.7017 Z M373.5,715.9994 L375,715.9994 L375,746.0004 L373.5,746.0004 L372.5,746.0004 L371,746.0004 L371,715.9994 L372.5,715.9994 L373.5,715.9994 Z M544.9327,669.7965 L546.2317,669.0465 L561.2317,695.0265 L557.7677,697.0265 L542.7677,671.0465 L544.0667,670.2965 L544.9327,669.7965 Z M670.2964,544.067 L671.0464,542.767 L697.0274,557.767 L695.0274,561.232 L669.0464,546.232 L669.7964,544.933 L669.7964,544.932 L670.2964,544.067 Z M716.0004,370.9997 L746.0004,370.9997 L746.0004,374.9997 L716.0004,374.9997 L716.0004,373.4997 L716.0004,372.4997 L716.0004,370.9997 Z M669.7964,201.067 L669.0464,199.767 L695.0274,184.767 L697.0274,188.232 L671.0464,203.232 L670.2964,201.932 L669.7964,201.067 Z M544.067,75.7027 L542.768,74.9527 L557.768,48.9727 L561.232,50.9727 L546.232,76.9527 L544.933,76.2027 L544.067,75.7027 Z M370.9998,-0.000100000001 L375.0008,-0.000100000001 L375.0008,29.9999 L373.4998,29.9999 L372.4998,29.9999 L370.9998,29.9999 L370.9998,-0.000100000001 Z M199.7681,76.9527 L184.7681,50.9727 L186.0671,50.2227 L186.9331,49.7227 L188.2321,48.9727 L203.2321,74.9527 L201.9331,75.7027 L201.0671,76.2027 L199.7681,76.9527 Z M74.9532,203.232 L48.9732,188.232 L49.7222,186.933 L49.7222,186.932 L50.2222,186.067 L50.9732,184.767 L76.9532,199.767 L74.9532,203.232 Z M0,370.9997 L30,370.9997 L30,372.4997 L30,373.4997 L30,374.9997 L0,374.9997 L0,373.4997 L0,372.4997 L0,370.9997 Z M76.9532,546.232 L50.9732,561.232 L50.2232,559.932 L50.2222,559.932 L49.7222,559.067 L49.7232,559.067 L48.9732,557.767 L74.9532,542.767 L76.9532,546.232 Z M203.232,671.0465 L188.232,697.0265 L186.933,696.2765 L186.067,695.7765 L184.768,695.0265 L199.768,669.0465 L203.232,671.0465 Z" id="Combined-Shape"/>
            </g></g>  
</g></g> 
 
</svg>
