<svg xmlns="http://www.w3.org/2000/svg" viewBox="0 0 801 739.91"><defs><style>.a{fill:rgba(191,191,191,0.6);}</style></defs><title>index-circle</title><path class="a" d="M10.5,392.09c0-168.38,104.72-312.76,252.44-371.45l-.84-.85c-2.67,1.07-5.34,2.15-8,3.28a400.68,400.68,0,0,0-3.23,736.64l.82-.83C109.93,697.46,10.5,556.17,10.5,392.09Z" transform="translate(-9.5 -19.79)"/><path class="a" d="M693.2,675.29A400.72,400.72,0,0,0,565.89,23.07c-2.65-1.13-5.32-2.21-8-3.28l-.84.85C704.78,79.33,809.5,223.71,809.5,392.09c0,164.08-99.43,305.37-241.2,366.79l.82.83A399.16,399.16,0,0,0,693.2,675.29Z" transform="translate(-9.5 -19.79)"/></svg>