<?xml version="1.0" encoding="UTF-8" standalone="no"?>
<svg width="148px" height="50px" viewBox="0 0 148 50" version="1.1" xmlns="http://www.w3.org/2000/svg" xmlns:xlink="http://www.w3.org/1999/xlink">
    <!-- Generator: Sketch 45.2 (43514) - http://www.bohemiancoding.com/sketch -->
    <title>Combined Shape Copy 2</title>
    <desc>Created with Sketch.</desc>
    <defs></defs>
    <g id="Symbols" stroke="none" stroke-width="1" fill="none" fill-rule="evenodd">
        <g id="layout-new" transform="translate(-566.000000, -19.000000)" fill="#fff">
            <g transform="translate(9.000000, 14.000000)" id="layout">
                <g>
                    <g id="logo-g" transform="translate(557.000000, 5.296875)">
                        <path d="M62.2200762,8.59603339 L59.6755593,8.59603339 L61.1400719,4.91190284 L63.6845888,4.91190284 L65.6294014,0 L80.039207,0 L78.0943944,4.91190284 L92.6740492,4.91190284 L94.6188618,0 L101.902786,0 L101.908689,0 L105.368191,0 L102.987083,1.04199275 C101.829802,1.54888615 100.9175,2.49649747 100.447665,3.67951995 L95.5698022,15.9642945 L88.2802431,15.9642945 L91.2095366,8.59603339 L76.6298818,8.59603339 L75.1651009,12.2801639 L86.099842,12.2801639 L84.6353294,15.9642945 L73.7005883,15.9642945 L70.6027873,15.9642945 L59.2907827,15.9642945 L62.2200762,8.59603339 Z M77.3862968,33.0156493 L75.9185324,36.6840727 L92.3783089,36.6840727 L90.9296377,40.3041564 L74.4698612,40.3041564 L71.8564982,46.83516 C71.3651817,48.0630989 70.1477816,48.9118809 68.878211,48.9118809 L60.0181091,48.9118809 L55.4507746,48.9118809 L56.1752446,47.1019741 L58.5949853,47.1019741 C59.8642869,47.1019741 61.0822249,46.252922 61.5735414,45.0252532 L63.4624344,40.3041564 L47.0938217,40.3041564 L48.5424928,36.6840727 L64.9111055,36.6840727 L66.37887,33.0156493 L62.3144156,33.0156493 L55.7565364,33.0156493 L52.4001479,33.0156493 L58.2717437,18.3419553 L61.6281322,18.3419553 L68.1860113,18.3419553 L87.4952625,18.3419553 L91.4077772,18.3419553 L97.2368836,18.3419553 L91.3652879,33.0156493 L85.5361814,33.0156493 L81.6239356,33.0156493 L77.3862968,33.0156493 Z M111.145379,40.4202349 L109.039336,40.4202349 L103.820198,40.4202349 L100.157607,40.4202349 L93.7178751,40.4202349 L92.8324255,40.4202349 L101.62383,18.3419553 L102.50901,18.3419553 L108.949011,18.3419553 L112.611602,18.3419553 L117.83047,18.3419553 L119.936783,18.3419553 L111.145379,40.4202349 Z M112.611119,15.9642945 L102.318951,15.9642945 L108.185221,1.2277723 L108.674211,0 L146.363532,0 L142.941676,8.59603339 L115.543986,8.59603339 L114.566274,11.0521204 L135.096607,11.0521204 L133.141453,15.9642945 L112.611119,15.9642945 Z M144.239178,18.3419553 L147.71875,18.3419553 L145.326291,19.3808559 C144.162931,19.8858582 143.245553,20.8315899 142.774605,22.0117291 L135.454705,40.3524962 L126.958514,40.3524962 L134.272755,22.0103788 L131.758249,22.0103788 L121.80422,46.83516 C121.311988,48.0630989 120.09205,48.9118809 118.820382,48.9118809 L118.625591,48.9118809 L110.085753,48.9118809 L109.943768,48.9118809 L105.368191,48.9118809 L106.093742,47.1019741 L108.517992,47.1019741 C109.789929,47.1019741 111.009867,46.252922 111.502099,45.0252532 L122.201077,18.3419553 L122.343062,18.3419553 L125.316931,18.3419553 L126.878226,18.3419553 L130.882631,18.3419553 L133.229018,18.3419553 L136.919547,18.3419553 L140.626781,18.3419553 L141.862076,18.3419553 L144.239178,18.3419553 Z M55.4883645,15.7180303 C54.3233158,16.2219535 53.4047353,17.1649867 52.9315272,18.3418878 L40.6386555,48.9118809 L32.1165852,48.9118809 L44.4094568,18.3418878 L41.9182903,18.3418878 L29.6254187,48.9118809 L21.3446818,48.9118809 L41.0132223,0 L44.6843013,0 L49.2939592,0 L60.3071961,0 L56.3734339,9.78248421 L45.3601971,9.78248421 L43.393316,14.6734563 L47.064395,14.6734563 L54.4065529,14.6734563 L54.4057421,14.6758868 L57.8960237,14.6758868 L55.4883645,15.7180303 Z M33.0602363,8.49164599 L23.4094004,8.49164599 L14.9073968,8.49164599 L15.6304175,6.69606273 L21.9885963,6.69606273 C23.255829,6.69606273 24.4715132,5.85346211 24.9620289,4.63524112 L26.8287807,0 L38.6237099,0 L36.0339373,6.43136022 C35.5434216,7.64904537 34.3277374,8.49164599 33.0602363,8.49164599 Z M10.2099542,29.5509281 L16.2626147,29.5509281 L9.30518337,47.1603938 C8.81670336,48.3968662 7.60633169,49.2515468 6.34409077,49.2515468 L3.63298657,49.2515468 L0,49.2515468 L0.720287447,47.4290621 L1.01145041,47.4290621 C2.27342396,47.4290621 3.48433037,46.5741096 3.97254302,45.3379092 L10.2099542,29.5509281 Z M17.4971547,11.2089727 L34.2192517,11.2089727 L31.764976,17.3449155 L30.2924645,21.0267521 L29.3104305,23.4808582 L27.8379191,27.1624239 L19.0020409,49.2515468 L10.8630292,49.2515468 L19.6989073,27.1624239 L7.45369839,27.1624239 L8.92647965,23.4808582 L21.1714188,23.4808582 L22.1534528,21.0267521 L9.90824389,21.0267521 L11.3810251,17.3449155 L12.9277287,17.3449155 L18.4379109,17.3449155 L19.9517002,17.3449155 L17.4971547,11.2089727 Z M67.9079662,29.5509281 L70.8101347,22.0782796 L67.9526272,22.0782796 L65.0504587,29.5509281 L67.9079662,29.5509281 Z M102.318951,36.6839107 L104.84524,36.6839107 L110.789063,22.0782796 L108.262773,22.0782796 L102.318951,36.6839107 Z M81.9258921,22.0782796 L78.9414421,29.5509281 L82.0554725,29.5509281 L85.0399226,22.0782796 L81.9258921,22.0782796 Z" id="Combined-Shape-Copy-2"></path>
                    </g>
                </g>
            </g>
        </g>
    </g>
</svg>